<svg width="22" height="22" viewBox="0 0 22 22" fill="none" xmlns="http://www.w3.org/2000/svg">
<path d="M19.2499 6.16919C19.2315 6.16919 19.204 6.16919 19.1765 6.16919C14.3274 5.68335 9.48736 5.50002 4.69319 5.98585L2.82319 6.16919C2.43819 6.20585 2.09903 5.93085 2.06236 5.54585C2.02569 5.16085 2.30069 4.83085 2.67653 4.79419L4.54653 4.61085C9.42319 4.11585 14.364 4.30835 19.314 4.79419C19.6899 4.83085 19.9649 5.17002 19.9282 5.54585C19.9007 5.90335 19.5982 6.16919 19.2499 6.16919Z" fill="#010D21"/>
<path d="M7.7917 5.24325C7.75503 5.24325 7.71836 5.24325 7.67253 5.23409C7.30586 5.16992 7.0492 4.81242 7.11336 4.44575L7.31503 3.24492C7.4617 2.36492 7.66336 1.14575 9.7992 1.14575H12.2009C14.3459 1.14575 14.5475 2.41075 14.685 3.25409L14.8867 4.44575C14.9509 4.82158 14.6942 5.17909 14.3275 5.23409C13.9517 5.29825 13.5942 5.04158 13.5392 4.67492L13.3375 3.48325C13.2092 2.68575 13.1817 2.52992 12.21 2.52992H9.80836C8.8367 2.52992 8.81836 2.65825 8.68086 3.47409L8.47003 4.66575C8.41503 5.00492 8.1217 5.24325 7.7917 5.24325Z" fill="#010D21"/>
<path d="M13.9427 20.8541H8.05769C4.85853 20.8541 4.73019 19.0849 4.62936 17.6549L4.03353 8.42411C4.00603 8.04828 4.29936 7.71828 4.67519 7.69078C5.06019 7.67245 5.38103 7.95661 5.40853 8.33245L6.00436 17.5633C6.10519 18.9566 6.14186 19.4791 8.05769 19.4791H13.9427C15.8677 19.4791 15.9044 18.9566 15.996 17.5633L16.5919 8.33245C16.6194 7.95661 16.9494 7.67245 17.3252 7.69078C17.701 7.71828 17.9944 8.03911 17.9669 8.42411L17.371 17.6549C17.2702 19.0849 17.1419 20.8541 13.9427 20.8541Z" fill="#010D21"/>
<path d="M12.5217 15.8125H9.46924C9.0934 15.8125 8.78174 15.5008 8.78174 15.125C8.78174 14.7492 9.0934 14.4375 9.46924 14.4375H12.5217C12.8976 14.4375 13.2092 14.7492 13.2092 15.125C13.2092 15.5008 12.8976 15.8125 12.5217 15.8125Z" fill="#010D21"/>
<path d="M13.2918 12.1458H8.7085C8.33266 12.1458 8.021 11.8341 8.021 11.4583C8.021 11.0824 8.33266 10.7708 8.7085 10.7708H13.2918C13.6677 10.7708 13.9793 11.0824 13.9793 11.4583C13.9793 11.8341 13.6677 12.1458 13.2918 12.1458Z" fill="#010D21"/>
</svg>
